<svg width="20" height="20" viewBox="0 0 20 20" fill="none" xmlns="http://www.w3.org/2000/svg">
<path d="M2.08325 10.0007C2.08325 6.2687 2.08325 4.40273 3.24262 3.24335C4.40199 2.08398 6.26797 2.08398 9.99992 2.08398C13.7318 2.08398 15.5978 2.08398 16.7573 3.24335C17.9166 4.40273 17.9166 6.2687 17.9166 10.0007C17.9166 13.7326 17.9166 15.5986 16.7573 16.758C15.5978 17.9173 13.7318 17.9173 9.99992 17.9173C6.26797 17.9173 4.40199 17.9173 3.24262 16.758C2.08325 15.5986 2.08325 13.7326 2.08325 10.0007Z" stroke="white" stroke-width="1.5"/>
<path d="M9.16675 5.83398H14.1667" stroke="white" stroke-width="1.5" stroke-linecap="round"/>
<path d="M5.83325 5.83398H6.66659" stroke="white" stroke-width="1.5" stroke-linecap="round"/>
<path d="M5.83325 10H6.66659" stroke="white" stroke-width="1.5" stroke-linecap="round"/>
<path d="M5.83325 14.166H6.66659" stroke="white" stroke-width="1.5" stroke-linecap="round"/>
<path d="M9.16675 10H14.1667" stroke="white" stroke-width="1.5" stroke-linecap="round"/>
<path d="M9.16675 14.166H14.1667" stroke="white" stroke-width="1.5" stroke-linecap="round"/>
</svg>
