<svg width="20" height="20" viewBox="0 0 20 20" fill="none" xmlns="http://www.w3.org/2000/svg">
<g clip-path="url(#clip0_2178_488)">
<path d="M12.5 14.166C11.8337 14.6847 10.9586 14.9993 9.99998 14.9993C9.04148 14.9993 8.16628 14.6847 7.5 14.166" stroke="white" stroke-width="1.5" stroke-linecap="round"/>
<path d="M1.95957 11.0106C1.66539 9.09618 1.5183 8.13904 1.88022 7.2905C2.24214 6.44195 3.04511 5.86137 4.65103 4.70023L5.85091 3.83268C7.84866 2.38824 8.84757 1.66602 10.0001 1.66602C11.1526 1.66602 12.1515 2.38824 14.1492 3.83268L15.3491 4.70023C16.9551 5.86137 17.7581 6.44195 18.12 7.2905C18.4819 8.13904 18.3348 9.09618 18.0406 11.0106L17.7897 12.643C17.3727 15.3568 17.1641 16.7137 16.1909 17.5232C15.2176 18.3327 13.7948 18.3327 10.9491 18.3327H9.05107C6.20537 18.3327 4.78251 18.3327 3.80925 17.5232C2.83599 16.7137 2.62747 15.3568 2.21044 12.643L1.95957 11.0106Z" stroke="white" stroke-width="1.5" stroke-linejoin="round"/>
</g>
<defs>
<clipPath id="clip0_2178_488">
<rect width="20" height="20" fill="white"/>
</clipPath>
</defs>
</svg>
