<svg width="20" height="20" viewBox="0 0 20 20" fill="none" xmlns="http://www.w3.org/2000/svg">
<path d="M15.5133 16.666H15.9218C16.8799 16.666 17.6421 16.2294 18.3264 15.619C20.0648 14.0682 15.9783 12.4993 14.5832 12.4993M12.9165 4.22332C13.1058 4.18579 13.3023 4.16602 13.5038 4.16602C15.0204 4.16602 16.2498 5.28531 16.2498 6.66602C16.2498 8.04672 15.0204 9.16602 13.5038 9.16602C13.3023 9.16602 13.1058 9.14627 12.9165 9.10868" stroke="white" stroke-width="1.5" stroke-linecap="round"/>
<path d="M3.73443 13.426C2.75195 13.9525 0.175949 15.0276 1.7449 16.3728C2.51133 17.03 3.36493 17.5 4.4381 17.5H10.5619C11.6351 17.5 12.4887 17.03 13.2551 16.3728C14.8241 15.0276 12.2481 13.9525 11.2656 13.426C8.96167 12.1913 6.03833 12.1913 3.73443 13.426Z" stroke="white" stroke-width="1.5"/>
<path d="M10.8332 6.24935C10.8332 8.0903 9.34075 9.58268 7.49984 9.58268C5.65889 9.58268 4.1665 8.0903 4.1665 6.24935C4.1665 4.4084 5.65889 2.91602 7.49984 2.91602C9.34075 2.91602 10.8332 4.4084 10.8332 6.24935Z" stroke="white" stroke-width="1.5"/>
</svg>
