<svg width="20" height="20" viewBox="0 0 20 20" fill="none" xmlns="http://www.w3.org/2000/svg">
<path d="M12.9166 10.0007C12.9166 11.6115 11.6108 12.9173 9.99992 12.9173C8.38909 12.9173 7.08325 11.6115 7.08325 10.0007C7.08325 8.38982 8.38909 7.08398 9.99992 7.08398C11.6108 7.08398 12.9166 8.38982 12.9166 10.0007Z" stroke="white" stroke-width="1.5"/>
<path d="M17.5092 11.7464C17.9442 11.6291 18.1617 11.5704 18.2475 11.4583C18.3334 11.3462 18.3334 11.1658 18.3334 10.805V9.19362C18.3334 8.83287 18.3334 8.65245 18.2475 8.54037C18.1616 8.4282 17.9442 8.36953 17.5092 8.25227C15.8839 7.81394 14.8667 6.11471 15.2862 4.50001C15.4015 4.05594 15.4592 3.83392 15.4041 3.70369C15.349 3.57347 15.191 3.48373 14.8748 3.30425L13.4376 2.48822C13.1274 2.31211 12.9723 2.22405 12.8332 2.2428C12.6939 2.26155 12.5369 2.41822 12.2227 2.73156C11.0067 3.94468 8.99475 3.94463 7.7787 2.73148C7.46461 2.41814 7.30756 2.26147 7.16836 2.24272C7.02916 2.22397 6.87406 2.31202 6.56386 2.48814L5.12661 3.30417C4.81052 3.48364 4.65247 3.57337 4.5974 3.70357C4.54231 3.83378 4.59997 4.05584 4.71529 4.49995C5.13456 6.1147 4.11651 7.81397 2.49093 8.25228C2.05601 8.36953 1.83856 8.4282 1.75265 8.54028C1.66675 8.65245 1.66675 8.83287 1.66675 9.19362V10.805C1.66675 11.1658 1.66675 11.3462 1.75265 11.4583C1.83854 11.5704 2.05601 11.6291 2.49093 11.7464C4.11625 12.1847 5.13348 13.8839 4.71401 15.4986C4.59866 15.9427 4.54097 16.1647 4.59605 16.2949C4.65113 16.4252 4.80918 16.5149 5.12529 16.6944L6.56254 17.5104C6.87276 17.6865 7.02786 17.7746 7.16708 17.7559C7.3063 17.7371 7.46331 17.5804 7.77734 17.267C8.994 16.0529 11.0074 16.0529 12.2242 17.2669C12.5382 17.5804 12.6952 17.737 12.8344 17.7558C12.9736 17.7745 13.1287 17.6864 13.4389 17.5104L14.8762 16.6943C15.1923 16.5149 15.3504 16.4251 15.4054 16.2949C15.4605 16.1646 15.4028 15.9426 15.2874 15.4985C14.8677 13.8839 15.8842 12.1848 17.5092 11.7464Z" stroke="white" stroke-width="1.5" stroke-linecap="round"/>
</svg>
