<svg width="784" height="784" viewBox="0 0 784 784" fill="none" xmlns="http://www.w3.org/2000/svg">
<path d="M128.435 479.244C128.435 479.244 167.635 568.62 266.748 597.848C365.861 627.075 471.701 588.126 558.192 558.852C644.683 529.577 690.171 454.721 670.9 377.967C651.629 301.214 578.764 306.733 510.807 238.572C442.85 170.411 435.104 141.968 340.93 121.834C246.756 101.701 143.676 180.964 117.898 293.217C92.12 405.47 128.435 479.244 128.435 479.244Z" fill="#3688B5"/>
<path opacity="0.8" d="M128.435 479.244C128.435 479.244 167.635 568.62 266.748 597.848C365.861 627.075 471.701 588.126 558.192 558.852C644.683 529.577 690.171 454.721 670.9 377.967C651.629 301.214 578.764 306.733 510.807 238.572C442.85 170.411 435.104 141.968 340.93 121.834C246.756 101.701 143.676 180.964 117.898 293.217C92.12 405.47 128.435 479.244 128.435 479.244Z" fill="white"/>
<path d="M631.904 358.445C631.904 358.445 667.843 362.004 686.047 384.285C686.047 384.285 705.302 358.476 739.861 359.009C748.306 348.82 753.684 336.442 755.368 323.316C757.051 310.19 754.971 296.855 749.37 284.865C743.769 272.875 734.877 262.722 723.73 255.59C712.583 248.457 699.639 244.637 686.405 244.576C673.172 244.514 660.193 248.213 648.98 255.242C637.767 262.271 628.781 272.34 623.069 284.278C617.356 296.216 615.153 309.53 616.714 322.672C618.276 335.813 623.538 348.241 631.888 358.507L631.904 358.445Z" fill="#3688B5"/>
<path opacity="0.5" d="M631.904 358.445C631.904 358.445 667.843 362.004 686.047 384.285C686.047 384.285 705.302 358.476 739.861 359.009C748.306 348.82 753.684 336.442 755.368 323.316C757.051 310.19 754.971 296.855 749.37 284.865C743.769 272.875 734.877 262.722 723.73 255.59C712.583 248.457 699.639 244.637 686.405 244.576C673.172 244.514 660.193 248.213 648.98 255.242C637.767 262.271 628.781 272.34 623.069 284.278C617.356 296.216 615.153 309.53 616.714 322.672C618.276 335.813 623.538 348.241 631.888 358.507L631.904 358.445Z" fill="white"/>
<path d="M684.84 249.5L683.632 482.411H689.7L684.84 249.5Z" fill="#B8B8B8"/>
<path d="M686.674 377.497C686.674 377.497 698.795 355.654 720.637 348.975C720.637 348.975 697.588 354.447 686.141 373.247L686.674 377.497Z" fill="#B8B8B8"/>
<path d="M686.674 315.622C686.674 315.622 698.795 293.78 720.637 287.101C720.637 287.101 697.588 292.557 686.141 311.373L686.674 315.622Z" fill="#B8B8B8"/>
<path d="M686.674 346.528C686.674 346.528 698.795 324.686 720.637 318.006C720.637 318.006 697.588 323.478 686.141 342.278L686.674 346.528Z" fill="#B8B8B8"/>
<path d="M684.871 331.38C684.871 331.38 673.158 309.554 652.084 302.874C652.084 302.874 674.334 308.331 685.451 327.147L684.871 331.38Z" fill="#B8B8B8"/>
<path d="M684.871 361.721C684.871 361.721 673.158 339.879 652.084 333.215C652.084 333.215 674.334 338.671 685.451 357.472L684.871 361.721Z" fill="#B8B8B8"/>
<path d="M43.7002 358.445C43.7002 358.445 79.6388 362.004 97.8433 384.285C97.8433 384.285 117.098 358.476 151.657 359.009C160.103 348.82 165.48 336.442 167.164 323.316C168.847 310.19 166.767 296.855 161.166 284.865C155.565 272.875 146.674 262.722 135.526 255.59C124.379 248.457 111.435 244.637 98.2014 244.576C84.9677 244.514 71.9887 248.213 60.7757 255.242C49.5627 262.271 40.577 272.34 34.8648 284.278C29.1525 296.216 26.9489 309.53 28.5103 322.672C30.0718 335.813 35.3341 348.241 43.6845 358.507L43.7002 358.445Z" fill="#3688B5"/>
<path opacity="0.5" d="M43.7002 358.445C43.7002 358.445 79.6388 362.004 97.8433 384.285C97.8433 384.285 117.098 358.476 151.657 359.009C160.103 348.82 165.48 336.442 167.164 323.316C168.847 310.19 166.767 296.855 161.166 284.865C155.565 272.875 146.674 262.722 135.526 255.59C124.379 248.457 111.435 244.637 98.2014 244.576C84.9677 244.514 71.9887 248.213 60.7757 255.242C49.5627 262.271 40.577 272.34 34.8648 284.278C29.1525 296.216 26.9489 309.53 28.5103 322.672C30.0718 335.813 35.3341 348.241 43.6845 358.507L43.7002 358.445Z" fill="white"/>
<path d="M96.6673 249.5L95.4442 482.411H101.512L96.6673 249.5Z" fill="#B8B8B8"/>
<path d="M98.4861 377.497C98.4861 377.497 110.607 355.654 132.449 348.975C132.449 348.975 109.399 354.447 97.953 373.247L98.4861 377.497Z" fill="#B8B8B8"/>
<path d="M98.4861 315.622C98.4861 315.622 110.607 293.78 132.449 287.101C132.449 287.101 109.399 292.557 97.953 311.373L98.4861 315.622Z" fill="#B8B8B8"/>
<path d="M98.4861 346.528C98.4861 346.528 110.607 324.686 132.449 318.006C132.449 318.006 109.399 323.478 97.953 342.278L98.4861 346.528Z" fill="#B8B8B8"/>
<path d="M96.683 331.38C96.683 331.38 84.97 309.554 63.8961 302.874C63.8961 302.874 86.146 308.331 97.2632 327.147L96.683 331.38Z" fill="#B8B8B8"/>
<path d="M96.683 361.721C96.683 361.721 84.97 339.879 63.8961 333.215C63.8961 333.215 86.146 338.671 97.2632 357.472L96.683 361.721Z" fill="#B8B8B8"/>
<path d="M485.876 381.023C485.876 381.023 515.292 383.924 530.188 402.16C530.188 402.16 545.946 381.039 574.233 381.462C581.142 373.122 585.54 362.991 586.915 352.248C588.289 341.505 586.584 330.593 581.998 320.782C577.412 310.971 570.133 302.664 561.009 296.829C551.885 290.994 541.291 287.871 530.461 287.823C519.631 287.775 509.01 290.804 499.835 296.558C490.66 302.312 483.307 310.554 478.634 320.324C473.961 330.094 472.159 340.99 473.439 351.745C474.718 362.499 479.026 372.669 485.861 381.07L485.876 381.023Z" fill="#3688B5"/>
<path opacity="0.5" d="M485.876 381.023C485.876 381.023 515.292 383.924 530.188 402.16C530.188 402.16 545.946 381.039 574.233 381.462C581.142 373.122 585.54 362.991 586.915 352.248C588.289 341.505 586.584 330.593 581.998 320.782C577.412 310.971 570.133 302.664 561.009 296.829C551.885 290.994 541.291 287.871 530.461 287.823C519.631 287.775 509.01 290.804 499.835 296.558C490.66 302.312 483.307 310.554 478.634 320.324C473.961 330.094 472.159 340.99 473.439 351.745C474.718 362.499 479.026 372.669 485.861 381.07L485.876 381.023Z" fill="white"/>
<path d="M529.216 291.772L528.228 482.41H533.198L529.216 291.772Z" fill="#B8B8B8"/>
<path d="M530.705 396.546C530.705 396.546 540.646 378.671 558.506 373.198C558.506 373.198 539.69 377.667 530.282 393.065L530.705 396.546Z" fill="#B8B8B8"/>
<path d="M530.705 345.901C530.705 345.901 540.646 328.026 558.506 322.569C558.506 322.569 539.69 327.038 530.282 342.42L530.705 345.901Z" fill="#B8B8B8"/>
<path d="M530.705 371.223C530.705 371.223 540.646 353.348 558.506 347.876C558.506 347.876 539.69 352.345 530.282 367.743L530.705 371.223Z" fill="#B8B8B8"/>
<path d="M529.232 358.805C529.232 358.805 519.651 340.93 502.403 335.474C502.403 335.474 520.608 339.942 529.718 355.325L529.232 358.805Z" fill="#B8B8B8"/>
<path d="M529.232 383.627C529.232 383.627 519.651 365.752 502.403 360.295C502.403 360.295 520.608 364.764 529.718 380.161L529.232 383.627Z" fill="#B8B8B8"/>
<path d="M201.269 381.023C201.269 381.023 230.684 383.924 245.58 402.16C245.58 402.16 261.26 381.039 289.625 381.462C296.534 373.122 300.932 362.991 302.307 352.248C303.682 341.505 301.977 330.593 297.39 320.782C292.804 310.971 285.525 302.664 276.401 296.829C267.277 290.994 256.684 287.871 245.854 287.823C235.023 287.775 224.403 290.804 215.227 296.558C206.052 302.312 198.7 310.554 194.027 320.324C189.353 330.094 187.552 340.99 188.831 351.745C190.11 362.499 194.418 372.669 201.253 381.07L201.269 381.023Z" fill="#3688B5"/>
<path opacity="0.5" d="M201.269 381.023C201.269 381.023 230.684 383.924 245.58 402.16C245.58 402.16 261.26 381.039 289.625 381.462C296.534 373.122 300.932 362.991 302.307 352.248C303.682 341.505 301.977 330.593 297.39 320.782C292.804 310.971 285.525 302.664 276.401 296.829C267.277 290.994 256.684 287.871 245.854 287.823C235.023 287.775 224.403 290.804 215.227 296.558C206.052 302.312 198.7 310.554 194.027 320.324C189.353 330.094 187.552 340.99 188.831 351.745C190.11 362.499 194.418 372.669 201.253 381.07L201.269 381.023Z" fill="white"/>
<path d="M244.608 291.772L243.62 482.41H248.591L244.608 291.772Z" fill="#B8B8B8"/>
<path d="M246.176 396.546C246.176 396.546 256.117 378.671 273.977 373.198C273.977 373.198 255.161 377.667 245.753 393.065L246.176 396.546Z" fill="#B8B8B8"/>
<path d="M246.176 345.901C246.176 345.901 256.117 328.026 273.977 322.569C273.977 322.569 255.161 327.038 245.753 342.42L246.176 345.901Z" fill="#B8B8B8"/>
<path d="M246.176 371.223C246.176 371.223 256.117 353.348 273.977 347.876C273.977 347.876 255.161 352.345 245.753 367.743L246.176 371.223Z" fill="#B8B8B8"/>
<path d="M244.608 358.805C244.608 358.805 235.043 340.93 217.795 335.552C217.795 335.552 236 340.021 245.11 355.403L244.608 358.805Z" fill="#B8B8B8"/>
<path d="M244.608 383.627C244.608 383.627 235.028 365.752 217.78 360.295C217.78 360.295 235.984 364.764 245.094 380.161L244.608 383.627Z" fill="#B8B8B8"/>
<path d="M54.5195 483.242H731.174" stroke="#263238" stroke-width="1.64235" stroke-miterlimit="10"/>
<path d="M295.584 189.289C295.584 177.169 301.981 170.238 313.663 170.238C325.344 170.238 331.758 177.169 331.758 189.289V228.709C331.758 240.83 325.36 247.76 313.663 247.76C301.965 247.76 295.584 240.83 295.584 228.709V189.289ZM307.501 229.462C307.501 234.871 309.884 236.925 313.663 236.925C317.442 236.925 319.841 234.871 319.841 229.462V188.537C319.841 183.127 317.457 181.073 313.663 181.073C309.868 181.073 307.501 183.127 307.501 188.537V229.462Z" fill="#263238"/>
<path d="M340.742 189.289C340.742 177.169 347.124 170.238 358.821 170.238C370.519 170.238 376.9 177.169 376.9 189.289V228.709C376.9 240.83 370.503 247.76 358.821 247.76C347.14 247.76 340.742 240.83 340.742 228.709V189.289ZM352.643 229.462C352.643 234.871 355.027 236.925 358.821 236.925C362.616 236.925 364.983 234.871 364.983 229.462V188.537C364.983 183.127 362.6 181.073 358.821 181.073C355.042 181.073 352.643 183.127 352.643 188.537V229.462Z" fill="#263238"/>
<path d="M422.153 189.837V199.684C422.153 211.821 416.304 218.5 404.403 218.5H398.774V246.975H386.857V171.115H404.403C416.304 171.115 422.153 177.717 422.153 189.837ZM398.774 181.997V207.65H404.403C408.182 207.65 410.236 205.925 410.236 200.515V189.147C410.236 183.722 408.182 181.997 404.403 181.997H398.774Z" fill="#263238"/>
<path d="M446.519 170.238C458.091 170.238 464.05 177.169 464.05 189.289V191.673H452.791V188.537C452.791 183.127 450.628 181.073 446.833 181.073C443.038 181.073 440.875 183.127 440.875 188.537C440.875 204.123 464.159 207.055 464.159 228.709C464.159 240.83 458.091 247.76 446.41 247.76C434.728 247.76 428.644 240.83 428.644 228.709V224.005H439.902V229.415C439.902 234.824 442.286 236.784 446.08 236.784C449.875 236.784 452.243 234.824 452.243 229.415C452.243 213.829 428.973 210.897 428.973 189.242C428.973 177.185 434.932 170.238 446.519 170.238Z" fill="#263238"/>
<path d="M474.775 230.103L473.207 202.726V171.115H485.124V202.726L483.556 230.103H474.775ZM484.951 235.419V246.897H473.536V235.419H484.951Z" fill="#263238"/>
<path d="M269.884 646.282C275.466 646.282 277.85 649.591 277.85 654.969V659.234C277.85 664.863 275.215 667.811 269.586 667.811H266.074V681.813H262.123V646.282H269.884ZM269.586 664.251C272.519 664.251 273.945 662.887 273.945 659.547V654.843C273.945 651.598 272.769 649.967 269.884 649.967H266.074V664.33L269.586 664.251Z" fill="#263238"/>
<path d="M285.47 674.647L284.09 681.813H280.437L287.242 646.282H292.981L299.786 681.813H295.819L294.455 674.647H285.47ZM285.972 671.26H293.89L289.876 650.72L285.972 671.26Z" fill="#263238"/>
<path d="M319.574 654.859V657.901H315.811V654.656C315.811 651.52 314.541 649.544 311.656 649.544C308.771 649.544 307.501 651.457 307.501 654.656V673.472C307.501 676.608 308.818 678.599 311.656 678.599C314.494 678.599 315.811 676.67 315.811 673.472V666.4H312.158V662.841H319.574V673.299C319.574 678.677 317.034 682.221 311.562 682.221C306.089 682.221 303.581 678.677 303.581 673.299V654.859C303.581 649.481 306.121 645.938 311.562 645.938C317.003 645.938 319.574 649.481 319.574 654.859Z" fill="#263238"/>
<path d="M336.979 662.025V665.569H328.308V678.207H338.955V681.813H324.341V646.282H338.955V649.889H328.308V662.025H336.979Z" fill="#263238"/>
<path d="M356.015 681.813H352.471V646.282H357.504L365.72 671.966V646.282H369.233V681.813H365.109L356.03 653.087L356.015 681.813Z" fill="#263238"/>
<path d="M373.984 654.859C373.984 649.434 376.665 645.938 382.106 645.938C387.547 645.938 390.275 649.434 390.275 654.859V673.236C390.275 678.615 387.578 682.158 382.106 682.158C376.634 682.158 373.984 678.615 373.984 673.236V654.859ZM377.888 673.44C377.888 676.686 379.268 678.568 382.106 678.568C384.944 678.568 386.308 676.686 386.308 673.44V654.624C386.308 651.488 384.991 649.513 382.106 649.513C379.221 649.513 377.888 651.425 377.888 654.624V673.44Z" fill="#263238"/>
<path d="M400.216 681.813V649.889H393.678V646.282H410.722V649.889H404.183V681.813H400.216Z" fill="#263238"/>
<path d="M435.496 662.825V666.4H427.327V681.782H423.36V646.282H437.472V649.889H427.327V662.825H435.496Z" fill="#263238"/>
<path d="M441.329 654.859C441.329 649.434 444.026 645.938 449.452 645.938C454.877 645.938 457.621 649.434 457.621 654.859V673.236C457.621 678.615 454.94 682.158 449.452 682.158C443.964 682.158 441.329 678.615 441.329 673.236V654.859ZM445.249 673.44C445.249 676.686 446.614 678.568 449.452 678.568C452.29 678.568 453.669 676.686 453.669 673.44V654.624C453.669 651.488 452.352 649.513 449.452 649.513C446.551 649.513 445.249 651.425 445.249 654.624V673.44Z" fill="#263238"/>
<path d="M466.151 673.44C466.151 676.576 467.421 678.567 470.306 678.567C473.191 678.567 474.43 676.639 474.43 673.44V646.282H478.13V673.236C478.13 678.614 475.637 682.221 470.165 682.221C464.693 682.221 462.246 678.614 462.246 673.236V646.282H466.151V673.44Z" fill="#263238"/>
<path d="M486.55 681.813H482.944V646.282H487.962L496.178 671.966V646.282H499.69V681.813H495.645L486.55 653.087V681.813Z" fill="#263238"/>
<path d="M513.144 646.282C518.679 646.282 521.219 649.638 521.219 655.11V673.032C521.219 678.458 518.679 681.813 513.144 681.813H504.896V646.282H513.144ZM513.144 678.207C515.982 678.207 517.362 676.435 517.362 673.189V654.906C517.362 651.66 515.982 649.889 513.097 649.889H508.832V678.207H513.144Z" fill="#263238"/>
<path opacity="0.3" d="M239.261 558.912C239.261 563.616 210.363 567.364 174.691 567.364C139.019 567.364 110.121 563.585 110.121 558.912C110.121 554.24 139.035 550.461 174.691 550.461C210.347 550.461 239.261 554.256 239.261 558.912Z" fill="black"/>
<path opacity="0.3" d="M374.438 558.912C374.438 563.616 345.525 567.364 309.868 567.364C274.212 567.364 245.298 563.585 245.298 558.912C245.298 554.24 274.212 550.461 309.868 550.461C345.525 550.461 374.438 554.256 374.438 558.912Z" fill="black"/>
<path opacity="0.3" d="M553.504 558.912C553.504 563.616 524.606 567.364 488.95 567.364C453.293 567.364 424.379 563.585 424.379 558.912C424.379 554.24 453.278 550.461 488.95 550.461C524.622 550.461 553.504 554.256 553.504 558.912Z" fill="black"/>
<path opacity="0.3" d="M703.091 558.912C703.091 563.616 674.177 567.364 638.521 567.364C602.865 567.364 573.888 563.585 573.888 558.912C573.888 554.24 602.802 550.461 638.458 550.461C674.114 550.461 703.091 554.256 703.091 558.912Z" fill="black"/>
<path d="M495.927 311.671C495.927 311.671 493.277 322.647 493.277 324.497C493.276 325.642 493.149 326.783 492.901 327.9C492.901 327.9 487.24 334.689 487.993 336.571C488.908 338.034 490.218 339.208 491.772 339.958C491.772 339.958 494.782 350.934 497.809 351.655C500.917 352.236 504.059 352.613 507.217 352.784L508.346 361.831L523.43 359.573L519.667 345.994L521.235 334.297C521.235 334.297 523.869 329.405 521.235 321.487C518.6 313.568 512.94 313.192 509.161 313.192C504.727 312.911 500.31 312.403 495.927 311.671Z" fill="white" stroke="#263238" stroke-width="1.64235" stroke-linecap="round" stroke-linejoin="round"/>
<path d="M502.716 306.026C502.716 306.026 489.514 305.634 489.89 309.037C490.267 312.44 503.845 316.877 503.845 316.877C503.845 316.877 499.314 319.888 501.572 322.914C503.83 325.94 509.114 328.574 509.114 328.574C509.114 328.574 507.546 334.987 509.882 335.364C512.219 335.74 513.645 332.337 514.022 331.209C514.398 330.08 518.553 330.456 519.682 333.466C520.321 335.031 520.702 336.688 520.811 338.374C520.811 338.374 525.343 324.795 526.095 318.759C526.848 312.722 509.882 306.026 502.716 306.026Z" fill="#263238" stroke="#263238" stroke-width="1.64235" stroke-linecap="round" stroke-linejoin="round"/>
<path d="M511.074 335.552C511.074 335.552 515.637 325.517 518.365 330.456C521.093 335.395 519.933 340.538 517.252 341.087C514.57 341.636 512.328 342.169 512.328 342.169" fill="white"/>
<path d="M511.074 335.552C511.074 335.552 515.637 325.517 518.365 330.456C521.093 335.395 519.933 340.538 517.252 341.087C514.57 341.636 512.328 342.169 512.328 342.169" stroke="#263238" stroke-width="1.64235" stroke-linecap="round" stroke-linejoin="round"/>
<path d="M492.524 440.278C491.788 441.141 479.698 467.06 478.193 475.731C476.688 484.402 466.888 536.083 466.496 538.341C466.104 540.599 445.39 545.131 443.869 545.507C442.348 545.883 445.437 550.038 449.906 551.167C454.375 552.296 467.264 557.581 470.29 554.554C473.317 551.528 477.456 534.562 478.585 532.681C479.714 530.799 500.945 480.78 500.945 480.78C500.945 480.78 511.827 456.774 514.084 454.5C516.342 452.227 511.403 442.176 509.506 439.15C507.609 436.123 497.809 434.242 492.524 440.278Z" fill="#263238" stroke="#263238" stroke-width="1.64235" stroke-linecap="round" stroke-linejoin="round"/>
<path d="M490.267 440.607C490.267 440.607 495.551 465.884 498.185 474.931C500.651 482.53 504.36 489.667 509.161 496.052C512.187 500.207 526.895 536.82 526.895 536.82L529.153 542.48C529.153 542.48 528.4 544.738 524.261 547.749C520.121 550.759 508.408 555.667 511.435 556.812C514.461 557.956 526.519 557.941 532.179 557.564C537.053 557.219 541.621 555.066 544.99 551.528C547.263 548.878 541.227 541.336 541.227 539.83C541.227 538.325 528.024 492.32 527.271 490.046C526.519 487.773 522.74 471.575 522.74 471.575V453.151C522.74 453.151 524.637 449.764 524.637 442.175C524.637 434.586 518.977 433.112 518.977 433.112L488.04 436.139L490.267 440.607Z" fill="#263238" stroke="#263238" stroke-width="1.64235" stroke-linecap="round" stroke-linejoin="round"/>
<path d="M487.648 438.396C487.648 438.396 488.416 444.809 490.674 445.185C492.932 445.562 516.311 451.975 526.503 444.433C526.503 444.433 528.385 438.772 527.256 437.267C526.127 435.762 523.477 436.514 509.914 436.514C496.35 436.514 487.648 436.514 487.648 438.396Z" fill="#F27649" stroke="#263238" stroke-width="1.64235" stroke-linecap="round" stroke-linejoin="round"/>
<path d="M522.317 353.913C522.317 353.913 508.361 355.795 502.325 361.753C496.288 367.711 491.019 378.735 488.385 388.911C485.751 399.087 483.854 436.437 487.617 438.319C491.38 440.2 523.069 442.097 528.385 439.887C533.7 437.676 528.008 419.895 528.008 413.105C528.008 406.316 534.045 383.313 532.916 370.503C531.787 357.692 522.317 353.913 522.317 353.913Z" fill="#F27649" stroke="#263238" stroke-width="1.64235" stroke-linecap="round" stroke-linejoin="round"/>
<path d="M471.968 393.113C471.795 377.59 465.461 364.341 457.041 358.617V355.481L433.834 355.717C420.773 355.858 410.314 372.965 410.581 393.819C410.847 414.673 421.557 431.561 434.634 431.451L457.84 431.216V428.08C465.994 422.012 472.046 408.637 471.968 393.113Z" fill="#263238" stroke="#263238" stroke-width="1.64235" stroke-linecap="round" stroke-linejoin="round"/>
<path d="M482.38 393.003C482.207 376.696 475.919 362.772 467.076 356.72V353.38L457.135 353.49C443.399 353.631 432.47 371.553 432.705 393.521C432.94 415.488 444.246 433.175 457.981 433.034L467.923 432.925V429.6C476.562 423.36 482.552 409.248 482.38 393.003Z" fill="white" stroke="#263238" stroke-width="1.64235" stroke-linecap="round" stroke-linejoin="round"/>
<path d="M492.352 392.894C492.587 414.846 481.643 432.783 467.923 432.925C454.203 433.066 442.835 415.379 442.646 393.427C442.458 371.475 453.356 353.537 467.076 353.38C480.796 353.223 492.086 370.926 492.352 392.894Z" fill="#737373" stroke="#263238" stroke-width="1.64235" stroke-linecap="round" stroke-linejoin="round"/>
<path d="M486.644 392.219C486.754 402.615 481.564 411.114 475.057 411.192C468.55 411.271 463.187 402.866 463.077 392.376C462.968 381.886 468.158 373.56 474.665 373.403C481.172 373.247 486.535 381.808 486.644 392.219Z" fill="#263238" stroke="#263238" stroke-width="1.64235" stroke-linecap="round" stroke-linejoin="round"/>
<path d="M671.418 470.4C672.712 460.735 673.263 450.985 673.064 441.235C667.968 443.587 638.239 444.45 635.511 444.512C632.782 444.575 603.053 443.587 597.957 441.235C597.733 450.983 598.257 460.733 599.525 470.4C601.579 483.117 619.642 534.03 620.05 536.491C620.579 538.865 621.265 541.202 622.104 543.485C622.104 543.485 611.834 550.87 607.318 553.739C602.802 556.609 606.095 557.848 610.611 557.848C615.127 557.848 624.566 556.609 627.435 556.609C629.975 556.609 634.397 554.398 635.432 553.865C636.467 554.398 640.889 556.609 643.413 556.609C646.298 556.609 655.738 557.848 660.254 557.848C664.769 557.848 668.094 556.609 663.546 553.739C658.999 550.87 648.76 543.485 648.76 543.485C649.599 541.202 650.286 538.865 650.814 536.491C651.3 533.983 669.364 483.07 671.418 470.4Z" fill="#263238" stroke="#263238" stroke-width="1.64235" stroke-linecap="round" stroke-linejoin="round"/>
<path d="M629.301 361.408C629.301 361.408 613.417 366.598 605.217 371.804C597.016 377.01 588.784 405.202 588.784 406.3C588.313 408.264 587.673 410.185 586.871 412.039C586.871 412.039 578.655 410.126 577.024 416.962C575.393 423.799 585.225 432.564 590.43 432.846C595.636 433.129 597.267 431.482 597.267 431.482C597.267 431.482 593.99 438.052 595.354 440.78C596.718 443.509 608.227 453.654 630.948 453.324C653.668 452.995 670.148 449.216 672.547 445.939C674.946 442.662 675.291 435.81 675.291 435.81C675.291 435.81 683.773 433.615 686.784 428.142C689.795 422.67 689.246 416.915 687.599 411.177C685.953 405.438 677.47 388.77 671.731 379.456C665.992 370.142 653.934 364.952 648.211 363.305C642.488 361.659 633.127 361.408 629.301 361.408Z" fill="#F27649" stroke="#263238" stroke-width="1.64235" stroke-linecap="round" stroke-linejoin="round"/>
<path d="M634.115 384.458C636.388 383.705 643.523 377.37 646.267 371.036C647.352 368.611 648.117 366.054 648.54 363.431L648.18 363.321C642.441 361.675 633.127 361.408 629.364 361.408C629.364 361.408 626.04 362.49 621.649 364.168C621.676 367.557 622.314 370.914 623.531 374.078C626.008 380.412 631.904 385.226 634.115 384.458Z" fill="white" stroke="#263238" stroke-width="1.64235" stroke-linecap="round" stroke-linejoin="round"/>
<path d="M660.222 397.252C660.222 397.252 666.792 432.297 674.24 435.903" stroke="#263238" stroke-width="1.64235" stroke-linecap="round" stroke-linejoin="round"/>
<path d="M597.267 431.482C597.267 431.482 605.483 400.546 606.032 397.535" stroke="#263238" stroke-width="1.64235" stroke-linecap="round" stroke-linejoin="round"/>
<path d="M670.837 413.09C670.837 413.09 666.29 414.109 666.29 417.402" stroke="#263238" stroke-width="1.64235" stroke-linecap="round" stroke-linejoin="round"/>
<path d="M593.582 413.591C593.582 413.591 598.647 416.884 598.145 421.948" stroke="#263238" stroke-width="1.64235" stroke-linecap="round" stroke-linejoin="round"/>
<path d="M627.514 556.64C630.054 556.64 634.475 554.429 635.51 553.896C636.545 554.429 640.967 556.64 643.492 556.64C646.377 556.64 655.816 557.879 660.332 557.879C664.848 557.879 668.172 556.64 663.625 553.77C659.689 551.277 651.441 545.382 649.34 543.876C644.495 548.298 634.915 547.2 634.915 547.2C632.974 546.908 631.052 546.5 629.16 545.977C626.291 545.146 622.182 543.516 622.182 543.516C622.182 543.516 611.912 550.901 607.396 553.77C602.88 556.64 606.173 557.879 610.689 557.879C615.205 557.879 624.644 556.64 627.514 556.64Z" fill="#3688B5" stroke="#263238" stroke-width="1.64235" stroke-linecap="round" stroke-linejoin="round"/>
<path d="M634.915 543.578V471.983" stroke="white" stroke-width="1.64235" stroke-linecap="round" stroke-linejoin="round"/>
<path d="M635.51 553.817L634.915 547.122V543.578" stroke="#263238" stroke-width="1.64235" stroke-linecap="round" stroke-linejoin="round"/>
<path d="M629.16 469.521H641.061" stroke="white" stroke-width="1.64235" stroke-linecap="round" stroke-linejoin="round"/>
<path d="M613.606 320.326C613.606 320.326 605.076 325.438 606.346 329.923C607.616 334.407 611.473 335.27 610.626 337.763C609.78 340.256 606.816 341.824 610.187 343.392C612.107 344.252 614.116 344.898 616.177 345.32C616.177 345.32 619.313 356.202 624.707 358.115C630.101 360.028 639.446 358.758 646.063 357.911C648.298 357.693 650.414 356.798 652.128 355.347C653.843 353.896 655.074 351.958 655.659 349.789C656.302 347.453 652.884 350.228 651.175 347.657C649.466 345.085 652.037 338.484 653.95 332.714C655.863 326.943 650.109 316.062 642.645 312.439C635.181 308.817 620.928 310.715 613.606 320.326Z" fill="#263238" stroke="#263238" stroke-width="1.64235" stroke-linecap="round" stroke-linejoin="round"/>
<path d="M627.937 357.503C626.852 361.082 626.117 364.758 625.742 368.479C625.459 373.183 629.301 378.342 633.409 378.06C637.517 377.777 641.061 369.577 641.61 365.516C642.159 361.455 640.246 350.463 640.246 350.463C640.246 350.463 633.974 350.745 631.481 352.925C630.017 354.209 628.813 355.764 627.937 357.503Z" fill="white" stroke="#263238" stroke-width="1.64235" stroke-linecap="round" stroke-linejoin="round"/>
<path d="M622.371 326.3C622.371 326.3 622.574 332.697 628.988 338.844C632.843 342.572 637.414 345.479 642.425 347.389C642.313 348.791 641.952 350.161 641.359 351.435C641.08 351.968 640.646 352.403 640.114 352.683C639.582 352.963 638.977 353.075 638.38 353.003H636.232C636.232 353.003 633.096 360.357 629.301 361.423C625.507 362.489 616.177 361.752 614.891 352.36C613.605 342.968 613.402 335.284 614.468 333.356C615.534 331.427 622.371 326.3 622.371 326.3Z" fill="white" stroke="#263238" stroke-width="1.64235" stroke-linecap="round" stroke-linejoin="round"/>
<path d="M689.465 408.934C690.438 406.972 691.029 404.844 691.206 402.662C691.206 399.808 685.906 395.715 684.934 394.696C683.962 393.677 682.989 393.787 682.786 395.214C682.783 396.015 682.944 396.808 683.26 397.544C683.575 398.28 684.038 398.944 684.62 399.494C685.415 400.121 685.991 400.982 686.267 401.956C686.361 402.662 684.51 406.127 685.435 408.369C686.361 410.611 688.963 411.286 689.465 408.934Z" fill="white" stroke="#263238" stroke-width="1.64235" stroke-linecap="round" stroke-linejoin="round"/>
<path d="M477.111 392.925C477.111 392.925 500.192 400.31 514.069 417.558C527.946 434.806 537.056 432.329 554.304 426.59C571.552 420.851 578.122 400.31 601.94 417.558C625.758 434.806 630.681 441.36 650.391 431.513C670.101 421.666 680.763 397.848 698.842 406.049C716.921 414.25 708.689 456.225 710.335 476.609C711.982 496.993 709.504 548.063 713.612 554.633C717.721 561.203 759.602 556.201 759.602 556.201" stroke="#263238" stroke-width="4.92706" stroke-linecap="round" stroke-linejoin="round"/>
<path d="M520.341 365.516C520.341 365.516 515.747 358.021 508.973 359.981C501.807 362.051 498.107 372.29 496.429 378.672C494.751 385.053 493.622 391.953 490.549 397.895C490.549 397.895 476.97 397.66 469.396 395.465C463.618 393.663 457.934 391.57 452.368 389.193C452.368 389.193 449.687 385.445 447.789 384.709C445.892 383.972 440.969 382.529 440.608 383.658C440.247 384.787 446.316 388.503 446.316 388.503C446.316 388.503 435.026 390.071 433.897 391.278C432.768 392.486 441.878 396.092 441.878 396.092C441.878 396.092 445.281 397.19 453.56 395.214C453.56 395.214 483.932 414.501 489.984 416.711C496.037 418.922 499.392 419.628 503.516 411.662C507.64 403.697 521.329 383.94 523.508 375.99" fill="#F27649"/>
<path d="M520.341 365.516C520.341 365.516 515.747 358.021 508.973 359.981C501.807 362.051 498.107 372.29 496.429 378.672C494.751 385.053 493.622 391.953 490.549 397.895C490.549 397.895 476.97 397.66 469.396 395.465C463.618 393.663 457.934 391.57 452.368 389.193C452.368 389.193 449.687 385.445 447.789 384.709C445.892 383.972 440.969 382.529 440.608 383.658C440.247 384.787 446.316 388.503 446.316 388.503C446.316 388.503 435.026 390.071 433.897 391.278C432.768 392.486 441.878 396.092 441.878 396.092C441.878 396.092 445.281 397.19 453.56 395.214C453.56 395.214 483.932 414.501 489.984 416.711C496.037 418.922 499.392 419.628 503.516 411.662C507.64 403.697 521.329 383.94 523.508 375.99" stroke="#263238" stroke-width="1.64235" stroke-linecap="round" stroke-linejoin="round"/>
<path d="M460.255 392.392C455.818 390.729 452.415 389.256 452.415 389.256C452.415 389.256 449.734 385.508 447.837 384.771C445.939 384.034 441.016 382.592 440.655 383.72C440.294 384.849 446.363 388.566 446.363 388.566C446.363 388.566 435.073 390.134 433.944 391.341C432.815 392.548 441.925 396.155 441.925 396.155C441.925 396.155 445.328 397.252 453.607 395.277L457.856 397.958L460.255 392.392Z" fill="white" stroke="#263238" stroke-width="1.64235" stroke-linecap="round" stroke-linejoin="round"/>
<path d="M577.322 411.82C576.349 409.859 575.758 407.73 575.581 405.548C575.581 402.695 580.897 398.618 581.853 397.599C582.81 396.579 583.782 396.689 583.986 398.116C583.989 398.917 583.827 399.71 583.512 400.446C583.196 401.182 582.733 401.846 582.151 402.397C581.357 403.023 580.78 403.885 580.505 404.858C580.411 405.548 582.261 409.029 581.336 411.271C580.411 413.514 577.824 414.157 577.322 411.82Z" fill="white" stroke="#263238" stroke-width="1.64235" stroke-linecap="round" stroke-linejoin="round"/>
<path d="M580.975 403.211C580.975 403.211 576.601 411.286 579.141 414.187C581.681 417.088 584.143 407.664 584.613 405.061C585.083 402.458 582.59 399.84 580.975 403.211Z" fill="white" stroke="#263238" stroke-width="1.64235" stroke-linecap="round" stroke-linejoin="round"/>
<path d="M584.582 406.111C584.582 406.111 580.207 414.186 582.747 417.087C585.287 419.988 587.749 410.564 588.22 407.961C588.69 405.358 586.197 402.646 584.582 406.111Z" fill="white" stroke="#263238" stroke-width="1.64235" stroke-linecap="round" stroke-linejoin="round"/>
<path d="M588.549 406.785C588.549 406.785 584.174 414.86 586.714 417.761C589.255 420.662 591.716 411.238 592.187 408.635C592.657 406.032 590.164 403.398 588.549 406.785Z" fill="white" stroke="#263238" stroke-width="1.64235" stroke-linecap="round" stroke-linejoin="round"/>
<path d="M593.629 406.849C593.629 406.849 589.552 413.121 591.779 415.489C594.006 417.857 596.405 410.409 596.875 408.26C597.345 406.112 595.134 404.027 593.629 406.849Z" fill="white" stroke="#263238" stroke-width="1.64235" stroke-linecap="round" stroke-linejoin="round"/>
<path d="M686.549 403.525C686.549 403.525 690.923 411.6 688.383 414.501C685.843 417.401 683.381 407.962 682.911 405.359C682.441 402.756 684.934 400.138 686.549 403.525Z" fill="white" stroke="#263238" stroke-width="1.64235" stroke-linecap="round" stroke-linejoin="round"/>
<path d="M682.942 406.348C682.942 406.348 687.317 414.423 684.777 417.324C682.237 420.225 679.775 410.785 679.305 408.182C678.834 405.579 681.327 402.977 682.942 406.348Z" fill="white" stroke="#263238" stroke-width="1.64235" stroke-linecap="round" stroke-linejoin="round"/>
<path d="M678.944 407.099C678.944 407.099 683.319 415.175 680.778 418.075C678.238 420.976 675.777 411.553 675.322 408.934C674.867 406.315 677.376 403.713 678.944 407.099Z" fill="white" stroke="#263238" stroke-width="1.64235" stroke-linecap="round" stroke-linejoin="round"/>
<path d="M673.895 407.163C673.895 407.163 677.972 413.513 675.745 415.802C673.519 418.092 671.12 410.722 670.665 408.574C670.21 406.426 672.39 404.34 673.895 407.163Z" fill="white" stroke="#263238" stroke-width="1.64235" stroke-linecap="round" stroke-linejoin="round"/>
<path d="M134.409 496.508V505.415C131.318 508.792 129.096 512.872 127.933 517.3C126.036 524.576 120.093 555.888 121.661 556.704C123.229 557.519 137.984 560.89 142.688 560.185C148.082 559.369 152.676 559.652 149.963 556.672C147.251 553.693 132.998 545.367 132.998 545.367C132.998 545.367 148.678 522.694 152.159 514.321C155.64 505.948 156.204 492.996 156.204 492.996L135.162 492.196L134.409 496.508Z" fill="white" stroke="#263238" stroke-width="1.64235" stroke-linecap="round" stroke-linejoin="round"/>
<path d="M142.688 560.183C148.082 559.367 152.676 559.65 149.963 556.671C147.251 553.691 132.998 545.365 132.998 545.365L132.465 548.595L122.194 547.341C121.442 552.578 121.112 556.42 121.661 556.749C123.339 557.502 137.984 560.888 142.688 560.183Z" fill="#263238" stroke="#263238" stroke-width="1.64235" stroke-linecap="round" stroke-linejoin="round"/>
<path d="M185.965 501.116L188.395 505.444C187.388 507.387 186.795 509.517 186.655 511.701C186.514 513.885 186.829 516.074 187.58 518.129C190.01 525.687 195.686 553.488 195.686 555.103C195.686 556.718 199.183 557.8 201.958 557.8C204.734 557.8 212.417 558.333 213.499 558.333C214.581 558.333 222.405 559.681 225.102 558.066C227.799 556.451 221.668 553.205 217.623 551.324C213.577 549.442 204.671 544.581 204.671 544.581C204.671 544.581 206.819 522.441 206.819 512.72C206.819 502.998 208.983 499.768 206.019 493.825C203.056 487.883 184.428 496.538 184.428 496.538L185.965 501.116Z" fill="white" stroke="#263238" stroke-width="1.64235" stroke-linecap="round" stroke-linejoin="round"/>
<path d="M217.544 551.323C213.499 549.426 204.593 544.581 204.593 544.581L203.511 548.627L194.84 550.195C195.357 552.891 195.686 554.742 195.686 555.118C195.686 556.686 199.183 557.815 201.958 557.815C204.734 557.815 212.417 558.348 213.499 558.348C214.581 558.348 222.405 559.697 225.102 558.082C227.799 556.467 221.59 553.205 217.544 551.323Z" fill="#263238" stroke="#263238" stroke-width="1.64235" stroke-linecap="round" stroke-linejoin="round"/>
<path d="M171.429 321.439C169.314 317.823 166.895 314.392 164.201 311.184C160.485 306.998 148.835 307.233 143.723 312.752C138.611 318.271 140.226 328.118 142.155 330.91C144.083 333.701 147.972 346.746 147.972 346.746L148.897 356.06L170.551 363.743L166.13 348.612C166.13 348.612 174.518 347.044 175.208 344.426C175.898 341.807 173.813 333.011 173.813 333.011C173.813 333.011 176.604 331.145 176.369 329.514C176.133 327.883 171.429 321.439 171.429 321.439Z" fill="white" stroke="#263238" stroke-width="1.64235" stroke-linecap="round" stroke-linejoin="round"/>
<path d="M146.514 331.474C146.514 331.474 150.214 334.61 152.237 331.02C154.26 327.429 155.797 323.917 155.797 320.875C155.797 317.833 148.192 315.308 153.256 313.27C158.321 311.232 161.974 315.763 164.232 311.216C166.49 306.669 164.436 306.183 152.269 306.183C140.101 306.183 134.017 312.266 136.589 319.871C138.645 325.487 141.19 330.912 144.193 336.084L146.514 331.474Z" fill="#263238" stroke="#263238" stroke-width="1.64235" stroke-linecap="round" stroke-linejoin="round"/>
<path d="M172.119 326.818C172.119 327.969 171.778 329.094 171.139 330.05C170.5 331.007 169.591 331.752 168.528 332.193C167.465 332.633 166.296 332.748 165.167 332.524C164.039 332.299 163.002 331.745 162.189 330.932C161.375 330.118 160.821 329.082 160.597 327.953C160.372 326.825 160.487 325.655 160.928 324.592C161.368 323.529 162.113 322.621 163.07 321.981C164.027 321.342 165.151 321.001 166.302 321.001C167.845 321.001 169.325 321.614 170.415 322.705C171.506 323.796 172.119 325.275 172.119 326.818Z" stroke="#263238" stroke-width="1.64235" stroke-linecap="round" stroke-linejoin="round"/>
<path d="M171.273 321.66C171.949 321.382 172.674 321.239 173.405 321.236C174.616 321.239 175.793 321.643 176.75 322.385C177.707 323.128 178.39 324.167 178.693 325.34C178.996 326.512 178.902 327.752 178.424 328.866C177.947 329.979 177.114 330.902 176.055 331.491" stroke="#263238" stroke-width="1.64235" stroke-linecap="round" stroke-linejoin="round"/>
<path d="M160.485 326.817L146.514 331.474" stroke="#263238" stroke-width="1.64235" stroke-linecap="round" stroke-linejoin="round"/>
<path d="M150.528 334.501C150.528 334.501 147.737 328.684 144.946 329.797C142.155 330.91 143.55 340.052 146.341 340.977C147.279 341.188 148.254 341.171 149.184 340.929C150.115 340.686 150.973 340.224 151.688 339.581C151.688 339.581 154.025 344.473 156.816 345.853" fill="white"/>
<path d="M150.528 334.501C150.528 334.501 147.737 328.684 144.946 329.797C142.155 330.91 143.55 340.052 146.341 340.977C147.279 341.188 148.254 341.171 149.184 340.929C150.115 340.686 150.973 340.224 151.688 339.581C151.688 339.581 154.025 344.473 156.816 345.853" stroke="#263238" stroke-width="1.64235" stroke-linecap="round" stroke-linejoin="round"/>
<path d="M132.214 439.041L130.473 461.338L125.268 494.344C125.268 494.344 137.435 503.893 148.788 503.893C160.14 503.893 163.26 502.451 163.26 502.451L169.626 468.582L175.992 504.191C175.992 504.191 188.536 502.168 196.847 500.13C202.625 498.522 208.102 495.98 213.06 492.604L196.267 448.888L192.629 426.34C192.629 426.34 173.813 428.08 162.508 428.661C151.202 429.241 136.165 426.34 136.165 426.34L132.214 439.041Z" fill="#3688B5" stroke="#263238" stroke-width="1.64235" stroke-linecap="round" stroke-linejoin="round"/>
<path d="M144.146 349.945C144.146 349.945 170.802 359.243 179.034 368.275C183.581 373.293 188.677 407.632 190.512 416.021C192.347 424.41 195.545 441.109 195.545 441.109C195.545 441.109 179.285 448.447 166.71 448.714C154.134 448.98 130.003 443.21 130.003 443.21C130.003 443.21 132.872 406.001 132.872 388.706C132.872 371.411 133.139 360.122 136.008 354.618C136.024 354.665 140.744 349.412 144.146 349.945Z" fill="#263238" stroke="#263238" stroke-width="1.64235" stroke-linecap="round" stroke-linejoin="round"/>
<path d="M137.137 445.907C137.137 445.907 138.58 470.227 137.137 479.212C136.124 485.008 134.375 490.652 131.932 496.005" stroke="#263238" stroke-width="1.64235" stroke-linecap="round" stroke-linejoin="round"/>
<path d="M137.717 457.495C139.895 456.748 141.84 455.447 143.363 453.721C144.886 451.994 145.934 449.902 146.404 447.648" stroke="#263238" stroke-width="1.64235" stroke-linecap="round" stroke-linejoin="round"/>
<path d="M126.71 489.639C126.71 489.639 141.199 502.089 163.778 497.479" stroke="#263238" stroke-width="1.64235" stroke-linecap="round" stroke-linejoin="round"/>
<path d="M175.365 496.867C175.365 496.867 199.105 494.265 209.532 487.318" stroke="#263238" stroke-width="1.64235" stroke-linecap="round" stroke-linejoin="round"/>
<path d="M281.55 338.688C281.55 338.688 279.261 340.381 271.28 346.214C263.298 352.047 269.586 360.86 269.586 360.86C269.586 360.86 263.879 361.753 256.258 369.766C248.638 377.778 259.661 391.53 269.962 393.678C280.264 395.826 292.306 383.078 295.913 371.255C299.519 359.433 294.753 341.605 292.354 337.92C289.954 334.235 281.55 338.688 281.55 338.688Z" fill="#263238" stroke="#263238" stroke-width="1.64235" stroke-linecap="round" stroke-linejoin="round"/>
<path d="M311.781 337.119C311.781 337.119 315.748 330.989 312.158 322.098C308.567 313.207 297.842 309.146 287.399 315.591C283.918 317.662 281.218 320.824 279.719 324.586C278.219 328.348 278.003 332.501 279.104 336.398C280.123 340.506 285.266 346.825 286.348 346.919C287.43 347.014 296.823 350.432 303.236 347.437C309.649 344.442 311.781 337.119 311.781 337.119Z" fill="#263238" stroke="#263238" stroke-width="1.64235" stroke-linecap="round" stroke-linejoin="round"/>
<path d="M265.635 544.097C265.635 544.097 273.083 555.684 286.019 557.66C298.955 559.635 287.32 548.032 285.141 546.276C282.961 544.52 267.391 540.725 265.635 544.097Z" fill="#737373" stroke="#263238" stroke-width="1.64235" stroke-linecap="round" stroke-linejoin="round"/>
<path d="M334.549 547.075C334.549 547.075 348.77 550.572 347.673 553.645C346.575 556.718 334.988 556.483 328.214 554.727C321.44 552.971 315.074 550.352 315.952 547.514C316.83 544.676 334.549 547.075 334.549 547.075Z" fill="#737373" stroke="#263238" stroke-width="1.64235" stroke-linecap="round" stroke-linejoin="round"/>
<path d="M294.11 360.17C294.11 360.17 275.074 362.961 271.593 369.688C268.112 376.414 273.02 413.059 273.02 413.059C273.02 413.059 264.898 430.981 264.788 442.521C264.678 454.062 269.821 474.367 269.414 479.432C269.006 484.497 263.8 542.152 263.8 543.72C263.8 545.288 274.776 548.8 290.597 550.682C306.419 552.564 336.681 546.934 336.681 546.934C336.681 546.934 336.085 512.909 337.669 492.619C339.252 472.329 336.995 454.093 332.965 446.52C328.935 438.946 310.166 411.679 310.166 411.679C310.166 411.679 319.26 395.183 319.825 387.971C320.389 380.758 317.457 376.995 310.589 368.7C308.548 366.253 306.039 364.238 303.21 362.773C300.38 361.309 297.286 360.424 294.11 360.17Z" fill="#3688B5" stroke="#263238" stroke-width="1.64235" stroke-linecap="round" stroke-linejoin="round"/>
<path d="M310.213 411.694C310.213 411.694 319.307 395.198 319.872 387.986C320.436 380.773 317.504 377.01 310.636 368.715C310.307 368.307 309.962 367.947 309.617 367.57L309.366 367.806C302.31 379.33 278.979 399.024 272.032 404.763C272.565 409.671 273.02 413.058 273.02 413.058C273.02 413.058 264.898 430.98 264.788 442.521C264.918 447.779 265.442 453.021 266.356 458.201C282.836 448.793 304.882 431.184 316.814 421.368C313.083 415.849 310.213 411.694 310.213 411.694Z" fill="#737373" stroke="#263238" stroke-width="1.64235" stroke-linecap="round" stroke-linejoin="round"/>
<path d="M290.598 346.716C291.124 351.02 291.411 355.349 291.46 359.684C291.209 362.898 292.244 370.236 297.732 372.541C303.22 374.846 306.67 371.632 306.654 368.402C306.455 365.734 305.928 363.101 305.086 360.562L305.243 351.703C305.243 351.703 295.772 345.776 290.598 346.716Z" fill="white" stroke="#263238" stroke-width="1.64235" stroke-linecap="round" stroke-linejoin="round"/>
<path d="M285.674 340.96C285.674 340.96 281.644 337.417 281.519 342.528C281.393 347.64 286.097 349.334 287.132 349.678C288.006 349.797 288.892 349.579 289.61 349.067C289.61 349.067 296.917 355.339 302.781 355.747C308.645 356.154 311.029 353.442 312.408 342.795C313.788 332.148 302.797 321.345 302.797 321.345C302.797 321.345 293.389 338.687 285.674 340.96Z" fill="white" stroke="#263238" stroke-width="1.64235" stroke-linecap="round" stroke-linejoin="round"/>
<path d="M196 440.89C195.947 439.073 196.245 437.262 196.878 435.558C197.85 433.426 203.15 432.203 204.326 431.795C205.502 431.388 206.098 431.795 205.753 432.909C205.479 433.507 205.086 434.044 204.598 434.486C204.11 434.928 203.538 435.266 202.915 435.48C202.104 435.675 201.375 436.119 200.83 436.75C200.532 437.252 200.72 440.466 199.262 441.83C197.803 443.195 195.514 442.818 196 440.89Z" fill="white" stroke="#263238" stroke-width="1.64235" stroke-linecap="round" stroke-linejoin="round"/>
<path d="M316.172 393.741C316.172 393.741 297.356 391.279 289.061 404.419C280.766 417.558 265.259 463.532 236.517 470.933C207.776 478.334 199.559 419.189 182.311 420.836C165.879 422.404 154.401 420.836 144.538 438.899C139.27 448.573 112.927 554.21 100.477 555.292C60.8227 558.757 35.2957 556.499 35.2957 556.499" stroke="#263238" stroke-width="4.92706" stroke-linecap="round" stroke-linejoin="round"/>
<path d="M145.369 350.698C145.369 350.698 141.026 348.957 135.224 352.423C129.423 355.888 113.805 393.833 114.966 397.895C116.126 401.956 132.621 409.482 141.888 412.085C151.155 414.688 167.948 417.887 167.948 417.887C167.948 417.887 173.154 425.993 174.895 426.275C177.426 426.241 179.948 425.952 182.421 425.413C182.421 425.413 185.557 428.016 186.764 425.115C187.972 422.214 185.604 418.467 183.001 415.566C180.398 412.665 169.391 411.223 169.391 411.223L139.552 390.65L152.096 367.491" fill="#263238"/>
<path d="M145.369 350.698C145.369 350.698 141.026 348.957 135.224 352.423C129.423 355.888 113.805 393.834 114.966 397.895C116.126 401.956 132.621 409.482 141.888 412.085C151.155 414.688 167.948 417.887 167.948 417.887C167.948 417.887 173.154 425.993 174.895 426.275C177.426 426.241 179.948 425.952 182.421 425.413C182.421 425.413 185.557 428.016 186.764 425.115C187.972 422.214 185.604 418.467 183.001 415.566C180.398 412.665 169.391 411.223 169.391 411.223L139.552 390.65L152.096 367.491" stroke="#263238" stroke-width="1.64235" stroke-linecap="round" stroke-linejoin="round"/>
<path d="M174.895 426.261C177.426 426.226 179.948 425.937 182.421 425.398C182.421 425.398 185.557 428.001 186.764 425.1C187.972 422.199 185.604 418.452 183.001 415.551C180.398 412.65 169.391 411.208 169.391 411.208L139.552 390.651L144.005 382.357C132.857 375.41 125.456 375.928 121.457 377.323C117.459 386.919 114.417 396.014 114.95 397.88C116.11 401.941 132.606 409.467 141.873 412.07C151.139 414.673 167.933 417.872 167.933 417.872C167.933 417.872 173.154 425.978 174.895 426.261Z" fill="white" stroke="#263238" stroke-width="1.64235" stroke-linecap="round" stroke-linejoin="round"/>
<path d="M361.408 394.383C360.138 380.695 353.568 369.452 345.728 364.983L345.478 362.192L324.999 364.09C313.475 365.156 305.525 380.977 307.234 399.417C308.943 417.856 319.668 431.921 331.193 430.777L351.671 428.879L351.405 426.088C358.304 420.318 362.679 408.072 361.408 394.383Z" fill="#263238" stroke="#263238" stroke-width="1.64235" stroke-linecap="round" stroke-linejoin="round"/>
<path d="M370.675 393.568C369.342 379.189 362.835 367.351 354.541 362.647L354.258 359.715L345.493 360.53C333.388 361.659 325.031 378.264 326.818 397.645C328.606 417.025 339.895 431.812 352 430.683L360.766 429.867L360.499 426.935C367.743 420.757 372.008 407.899 370.675 393.568Z" fill="white" stroke="#263238" stroke-width="1.64235" stroke-linecap="round" stroke-linejoin="round"/>
<path d="M379.456 392.705C381.259 412.085 372.902 428.69 360.781 429.819C348.66 430.948 337.386 416.147 335.552 396.782C333.717 377.417 342.106 360.718 354.211 359.667C366.316 358.617 377.637 373.34 379.456 392.705Z" fill="white" stroke="#263238" stroke-width="1.64235" stroke-linecap="round" stroke-linejoin="round"/>
<path d="M388.864 381.385L354.854 384.521C354.377 384.566 353.896 384.517 353.438 384.375C352.981 384.234 352.555 384.004 352.187 383.698C351.818 383.392 351.514 383.017 351.291 382.593C351.068 382.169 350.93 381.705 350.887 381.228C350.842 380.751 350.891 380.27 351.032 379.812C351.173 379.354 351.404 378.929 351.709 378.56C352.015 378.192 352.391 377.887 352.815 377.664C353.239 377.441 353.703 377.304 354.18 377.261L388.19 374.125C388.667 374.079 389.148 374.129 389.606 374.27C390.063 374.411 390.489 374.641 390.857 374.947C391.226 375.253 391.531 375.629 391.754 376.053C391.977 376.477 392.114 376.94 392.157 377.418C392.202 377.894 392.153 378.376 392.012 378.833C391.871 379.291 391.641 379.716 391.335 380.085C391.029 380.454 390.653 380.758 390.229 380.981C389.805 381.204 389.341 381.341 388.864 381.385Z" fill="#737373" stroke="#263238" stroke-width="1.64235" stroke-linecap="round" stroke-linejoin="round"/>
<path d="M391.389 408.339L357.379 411.475C356.902 411.52 356.421 411.471 355.963 411.33C355.505 411.189 355.08 410.959 354.711 410.653C354.342 410.347 354.038 409.971 353.815 409.547C353.592 409.123 353.455 408.659 353.412 408.182C353.366 407.705 353.416 407.224 353.557 406.766C353.698 406.309 353.928 405.883 354.234 405.515C354.54 405.146 354.916 404.841 355.34 404.618C355.763 404.395 356.227 404.258 356.704 404.215L390.714 401.079C391.676 400.996 392.631 401.295 393.374 401.911C394.116 402.528 394.586 403.412 394.681 404.372C394.727 404.849 394.677 405.33 394.536 405.788C394.395 406.245 394.165 406.671 393.859 407.039C393.553 407.408 393.177 407.713 392.753 407.936C392.329 408.159 391.866 408.296 391.389 408.339Z" fill="#737373" stroke="#263238" stroke-width="1.64235" stroke-linecap="round" stroke-linejoin="round"/>
<path d="M282.35 362.726C282.35 362.726 274.165 364.294 270.292 368.998C266.419 373.702 258.469 410.001 260.304 414.172C262.138 418.343 291.538 423.58 300.617 424.332C307.917 424.621 315.229 424.296 322.475 423.36C322.475 423.36 330.315 423.156 332.463 422.796C334.611 422.435 338.563 420.318 338.625 419.519C338.688 418.719 338.296 416.806 335.364 416.571C332.432 416.336 326.144 414.234 325.344 414.172C327.229 413.676 329.139 413.289 331.068 413.011C331.068 413.011 331.475 411.443 328.245 411.443C325.015 411.443 322.083 411.224 320.86 413.011C319.986 414.404 319.24 415.873 318.633 417.402C318.633 417.402 300.523 418.672 290.692 413.874C280.86 409.076 277.756 407.476 277.756 407.476L284.812 379.252" fill="#3688B5"/>
<path d="M282.35 362.726C282.35 362.726 274.165 364.294 270.292 368.998C266.419 373.702 258.469 410.001 260.304 414.172C262.138 418.343 291.538 423.58 300.617 424.332C307.917 424.621 315.229 424.296 322.475 423.36C322.475 423.36 330.315 423.156 332.463 422.796C334.611 422.435 338.563 420.318 338.625 419.519C338.688 418.719 338.296 416.806 335.364 416.571C332.432 416.336 326.144 414.234 325.344 414.172C327.229 413.676 329.139 413.289 331.068 413.011C331.068 413.011 331.475 411.443 328.245 411.443C325.015 411.443 322.083 411.224 320.86 413.011C319.986 414.404 319.24 415.873 318.633 417.402C318.633 417.402 300.523 418.672 290.692 413.874C280.86 409.076 277.756 407.476 277.756 407.476L284.812 379.252" stroke="#263238" stroke-width="1.64235" stroke-linecap="round" stroke-linejoin="round"/>
<path d="M332.416 422.842C334.596 422.482 338.516 420.365 338.578 419.565C338.641 418.766 338.249 416.853 335.317 416.617C332.385 416.382 326.097 414.281 325.297 414.218C327.182 413.723 329.092 413.335 331.021 413.058C331.021 413.058 331.428 411.49 328.198 411.49C324.968 411.49 322.036 411.271 320.813 413.058C319.938 414.451 319.193 415.92 318.586 417.448C318.586 417.448 300.476 418.719 290.645 413.92C280.813 409.122 277.709 407.523 277.709 407.523L282.005 390.275C276.412 387.973 270.51 386.51 264.49 385.932C261.558 397.754 259.159 411.678 260.257 414.156C262.076 418.327 291.491 423.564 300.57 424.316C307.87 424.605 315.182 424.28 322.428 423.344C322.428 423.344 330.284 423.203 332.416 422.842Z" fill="white" stroke="#263238" stroke-width="1.64235" stroke-linecap="round" stroke-linejoin="round"/>
<path d="M199.983 437.848C199.983 437.848 193.93 442.379 194.855 445.374C195.78 448.369 200.829 442.238 202.084 440.435C203.338 438.632 202.35 435.903 199.983 437.848Z" fill="white" stroke="#263238" stroke-width="1.64235" stroke-linecap="round" stroke-linejoin="round"/>
<path d="M201.174 441.91C201.174 441.91 195.137 446.441 196.047 449.436C196.956 452.431 202.037 446.3 203.275 444.497C204.514 442.694 203.542 439.934 201.174 441.91Z" fill="white" stroke="#263238" stroke-width="1.64235" stroke-linecap="round" stroke-linejoin="round"/>
<path d="M204.044 444.543C204.044 444.543 198.007 449.075 198.932 452.07C199.857 455.065 204.906 448.934 206.161 447.131C207.415 445.327 206.427 442.568 204.044 444.543Z" fill="white" stroke="#263238" stroke-width="1.64235" stroke-linecap="round" stroke-linejoin="round"/>
<path d="M206.412 446.676C206.412 446.676 201.19 450.032 202.068 452.509C202.946 454.987 207.258 450.298 208.34 448.856C209.422 447.413 208.544 445.093 206.412 446.676Z" fill="white" stroke="#263238" stroke-width="1.64235" stroke-linecap="round" stroke-linejoin="round"/>
</svg>
